<svg width="326" height="218" viewBox="0 0 326 218" fill="none" xmlns="http://www.w3.org/2000/svg">
<path d="M82.1264 122H78.8949L88.2415 96.5455H91.4233L100.77 122H97.5384L89.9318 100.572H89.733L82.1264 122ZM83.3196 112.057H96.3452V114.791H83.3196V112.057ZM104.735 122V96.5455H113.336C115.324 96.5455 116.957 96.8852 118.233 97.5646C119.509 98.2358 120.453 99.1597 121.066 100.336C121.68 101.513 121.986 102.851 121.986 104.351C121.986 105.851 121.68 107.181 121.066 108.341C120.453 109.501 119.513 110.412 118.245 111.075C116.977 111.73 115.357 112.057 113.385 112.057H106.425V109.273H113.286C114.645 109.273 115.739 109.074 116.567 108.676C117.404 108.278 118.009 107.715 118.382 106.986C118.763 106.248 118.953 105.37 118.953 104.351C118.953 103.332 118.763 102.441 118.382 101.679C118.001 100.916 117.392 100.328 116.555 99.9137C115.718 99.4911 114.612 99.2798 113.236 99.2798H107.817V122H104.735ZM116.716 110.565L122.98 122H119.401L113.236 110.565H116.716ZM147.605 104.5H144.523C144.341 103.613 144.022 102.835 143.566 102.163C143.119 101.492 142.572 100.929 141.925 100.473C141.287 100.009 140.579 99.661 139.8 99.429C139.021 99.197 138.209 99.081 137.364 99.081C135.823 99.081 134.427 99.4704 133.175 100.249C131.932 101.028 130.942 102.176 130.205 103.692C129.476 105.208 129.111 107.069 129.111 109.273C129.111 111.477 129.476 113.337 130.205 114.853C130.942 116.37 131.932 117.517 133.175 118.296C134.427 119.075 135.823 119.464 137.364 119.464C138.209 119.464 139.021 119.348 139.8 119.116C140.579 118.884 141.287 118.541 141.925 118.085C142.572 117.621 143.119 117.053 143.566 116.382C144.022 115.703 144.341 114.924 144.523 114.045H147.605C147.373 115.346 146.951 116.511 146.338 117.538C145.724 118.565 144.962 119.44 144.051 120.161C143.139 120.873 142.116 121.416 140.981 121.789C139.854 122.162 138.648 122.348 137.364 122.348C135.193 122.348 133.262 121.818 131.572 120.757C129.882 119.696 128.552 118.188 127.582 116.233C126.613 114.277 126.128 111.957 126.128 109.273C126.128 106.588 126.613 104.268 127.582 102.312C128.552 100.357 129.882 98.849 131.572 97.7884C133.262 96.7277 135.193 96.1974 137.364 96.1974C138.648 96.1974 139.854 96.3839 140.981 96.7567C142.116 97.1296 143.139 97.6765 144.051 98.3974C144.962 99.11 145.724 99.98 146.338 101.007C146.951 102.027 147.373 103.191 147.605 104.5ZM152.586 122V96.5455H155.669V107.881H169.241V96.5455H172.324V122H169.241V110.615H155.669V122H152.586ZM181.577 96.5455V122H178.494V96.5455H181.577ZM188.801 96.5455L196.358 117.973H196.656L204.213 96.5455H207.445L198.098 122H194.916L185.57 96.5455H188.801ZM211.41 122V96.5455H226.772V99.2798H214.492V107.881H225.976V110.615H214.492V119.266H226.971V122H211.41Z" fill="black"/>
<path d="M315.5 108.5C315.5 114.961 311.273 121.211 303.406 126.975C295.549 132.732 284.148 137.937 270.014 142.317C241.753 151.075 202.68 156.5 159.5 156.5C116.32 156.5 77.2468 151.075 48.9858 142.317C34.8523 137.937 23.451 132.732 15.5941 126.975C7.7267 121.211 3.5 114.961 3.5 108.5C3.5 102.039 7.7267 95.7893 15.5941 90.0249C23.451 84.2682 34.8523 79.063 48.9858 74.6829C77.2468 65.9247 116.32 60.5 159.5 60.5C202.68 60.5 241.753 65.9247 270.014 74.6829C284.148 79.063 295.549 84.2682 303.406 90.0249C311.273 95.7893 315.5 102.039 315.5 108.5Z" stroke="#101110"/>
<path d="M304.543 44.3561C307.218 50.2379 305.958 57.6763 301.182 66.1804C296.413 74.6732 288.19 84.1313 277.137 93.9692C255.037 113.641 221.715 134.754 182.409 152.629C143.102 170.505 105.289 181.742 75.9372 185.468C61.2584 187.332 48.7251 187.313 39.1899 185.326C29.642 183.335 23.2075 179.396 20.5327 173.515C17.8578 167.633 19.1183 160.194 23.8937 151.69C28.6627 143.197 36.8863 133.739 47.9387 123.901C70.0388 104.23 103.361 83.1167 142.668 65.2413C181.974 47.366 219.788 36.1291 249.139 32.4024C263.818 30.5387 276.351 30.5572 285.886 32.545C295.434 34.5354 301.869 38.4743 304.543 44.3561Z" stroke="#101110"/>
</svg>
